<?xml version="1.0" standalone="no"?>
<!DOCTYPE svg PUBLIC "-//W3C//DTD SVG 20010904//EN"
 "http://www.w3.org/TR/2001/REC-SVG-20010904/DTD/svg10.dtd">
<svg version="1.0" xmlns="http://www.w3.org/2000/svg"
 width="5189.000000pt" height="266.000000pt" viewBox="0 0 5189.000000 266.000000"
 preserveAspectRatio="xMidYMid meet">

<g transform="translate(0.000000,266.000000) scale(0.100000,-0.100000)"
fill="#000000" stroke="none">
<path d="M3812 2612 c-42 -37 -44 -42 -504 -1262 -253 -674 -463 -1235 -466
-1248 -3 -17 5 -33 29 -58 l33 -34 316 0 317 0 178 503 c98 276 180 508 182
515 3 7 23 12 49 12 l43 0 56 -175 56 -175 298 0 299 0 30 35 31 34 -75 223
c-42 123 -179 531 -305 908 -215 640 -232 687 -266 722 l-37 38 -111 0 -110 0
-43 -38z m302 -209 c24 -76 151 -462 281 -858 130 -396 238 -726 240 -733 3
-9 -47 -12 -228 -12 l-232 0 -60 175 -60 175 -110 -2 -110 -3 -190 -507 -190
-508 -247 0 -248 0 23 63 c13 34 214 576 447 1205 l425 1142 107 0 106 0 46
-137z"/>
<path d="M12742 2612 c-42 -37 -44 -42 -504 -1262 -253 -674 -463 -1235 -466
-1248 -3 -17 5 -33 29 -58 l33 -34 316 0 317 0 178 503 c98 276 180 508 182
515 3 7 23 12 49 12 l43 0 56 -175 56 -175 298 0 299 0 30 35 31 34 -75 223
c-42 123 -179 531 -305 908 -215 640 -232 687 -266 722 l-37 38 -111 0 -110 0
-43 -38z m302 -209 c24 -76 151 -462 281 -858 130 -396 238 -726 240 -733 3
-9 -47 -12 -228 -12 l-232 0 -60 175 -60 175 -110 -2 -110 -3 -190 -507 -190
-508 -247 0 -248 0 23 63 c13 34 214 576 447 1205 l425 1142 107 0 106 0 46
-137z"/>
<path d="M17601 2634 c-183 -29 -386 -109 -551 -219 -110 -73 -285 -251 -359
-364 -154 -236 -221 -455 -221 -726 0 -216 40 -387 136 -578 191 -380 554
-650 973 -722 124 -21 348 -21 471 0 430 75 788 341 983 730 333 667 23 1482
-679 1784 -231 100 -500 133 -753 95z m435 -129 c525 -92 939 -517 1014 -1040
90 -633 -368 -1247 -1014 -1360 -115 -20 -338 -20 -447 0 -300 56 -575 220
-753 449 -179 231 -266 475 -266 751 0 578 414 1076 995 1195 117 24 347 26
471 5z"/>
<path d="M17733 1999 c-88 -8 -154 -29 -258 -82 -116 -59 -245 -190 -303 -308
-172 -347 -29 -757 323 -929 105 -51 195 -71 320 -71 202 1 363 68 505 210
140 141 198 267 208 447 6 127 -14 224 -70 335 -137 273 -415 426 -725 398z
m208 -123 c214 -46 399 -222 454 -433 19 -73 19 -212 0 -283 -38 -145 -152
-289 -286 -364 -242 -134 -543 -87 -732 114 -109 115 -157 235 -157 390 0 143
40 256 130 368 141 175 369 255 591 208z"/>
<path d="M24483 2612 c-41 -37 -47 -53 -508 -1279 l-467 -1242 33 -40 34 -41
316 0 317 0 24 68 c14 37 97 269 184 515 l159 448 44 -3 c50 -3 37 24 117
-230 l37 -118 297 0 296 0 32 33 33 34 -305 908 c-290 862 -307 910 -342 947
l-38 38 -111 0 -110 -1 -42 -37z m543 -941 c156 -476 284 -866 284 -868 0 -2
-105 -3 -233 -3 l-232 0 -59 175 -58 176 -110 -3 -110 -3 -190 -507 -190 -508
-244 0 c-166 0 -244 3 -244 11 0 9 841 2282 876 2367 l13 33 107 -3 106 -3
284 -864z"/>
<path d="M35555 2639 c-157 -21 -358 -91 -503 -177 -304 -181 -533 -483 -617
-817 -190 -750 318 -1501 1099 -1625 103 -16 330 -14 443 5 485 81 890 426
1052 895 61 174 80 445 46 630 -35 191 -118 383 -231 540 -74 104 -238 262
-339 329 -279 184 -617 262 -950 220z m422 -138 c245 -48 452 -154 630 -323
192 -184 319 -416 364 -668 20 -108 17 -335 -5 -440 -90 -425 -407 -779 -826
-920 -235 -79 -548 -81 -785 -5 -581 187 -941 772 -839 1366 85 495 493 902
994 994 116 21 350 19 467 -4z"/>
<path d="M35665 1999 c-92 -9 -145 -24 -231 -65 -192 -91 -338 -268 -390 -474
-23 -92 -16 -280 15 -370 56 -164 190 -321 338 -398 114 -59 213 -83 343 -83
206 0 366 66 510 211 173 172 241 388 194 618 -30 149 -136 318 -255 408 -111
83 -241 139 -347 149 -31 3 -68 7 -82 9 -14 1 -56 -1 -95 -5z m267 -142 c141
-51 256 -145 330 -268 51 -84 69 -145 75 -254 19 -337 -253 -615 -602 -615
-261 0 -496 179 -571 435 -25 85 -23 230 5 315 65 202 246 366 454 410 76 16
235 5 309 -23z"/>
<path d="M47830 2613 c-41 -38 -46 -50 -510 -1283 l-469 -1245 37 -38 36 -37
316 0 315 0 182 513 181 512 45 3 45 3 41 -133 c23 -73 48 -151 55 -173 l13
-40 301 -3 301 -2 28 36 28 37 -304 906 c-281 837 -306 909 -339 944 l-36 37
-112 0 -111 0 -43 -37z m538 -931 c155 -472 282 -863 282 -870 0 -9 -58 -12
-229 -12 l-230 0 -58 175 -58 175 -110 0 -110 0 -190 -510 -190 -510 -249 0
c-194 0 -247 3 -243 13 18 48 872 2348 879 2370 l10 27 107 0 107 0 282 -858z"/>
<path d="M50346 2639 c-569 -78 -1033 -515 -1143 -1077 -21 -107 -23 -345 -4
-452 87 -491 459 -907 938 -1049 177 -53 443 -68 628 -36 563 96 1004 533
1100 1089 32 186 14 433 -45 609 -155 461 -542 802 -1025 902 -95 20 -350 28
-449 14z m400 -134 c441 -76 818 -392 963 -807 45 -130 64 -244 64 -393 0
-149 -19 -263 -64 -393 -145 -415 -522 -731 -963 -807 -115 -19 -328 -19 -442
0 -383 67 -719 320 -894 672 -86 174 -121 326 -121 532 0 198 36 351 121 524
172 347 509 603 886 671 108 19 339 20 450 1z"/>
<path d="M50448 1998 c-381 -35 -678 -401 -628 -774 22 -168 79 -283 200 -404
142 -143 306 -212 503 -212 121 0 211 19 310 66 361 168 514 578 343 921 -78
157 -175 253 -331 330 -138 69 -242 88 -397 73z m265 -137 c96 -34 168 -80
247 -160 51 -52 86 -98 108 -143 142 -289 25 -625 -267 -771 -445 -223 -958
156 -857 634 36 168 165 330 326 407 47 23 108 45 135 51 77 16 240 6 308 -18z"/>
<path d="M7241 2579 l-51 -61 0 -494 0 -494 -293 0 c-215 0 -296 -3 -305 -12
-9 -9 -12 -70 -12 -214 l0 -202 483 -546 482 -546 155 0 156 0 37 38 37 38 0
1221 0 1222 -47 55 -48 55 -272 1 -271 0 -51 -61z m559 -1259 l0 -1200 -107 0
-108 0 -185 207 c-102 113 -250 279 -330 367 -80 89 -198 221 -262 293 l-118
132 0 155 0 156 303 0 c210 0 306 3 314 11 8 8 10 158 6 545 l-6 534 246 0
247 0 0 -1200z"/>
<path d="M8002 2607 l-32 -33 0 -296 0 -296 42 -31 42 -31 429 0 430 0 53 43
53 42 1 270 0 271 -48 47 -48 47 -445 0 -445 0 -32 -33z m878 -327 l0 -240
-395 0 -395 0 0 240 0 240 395 0 395 0 0 -240z"/>
<path d="M9780 2630 c-264 -47 -574 -360 -610 -615 -6 -41 -10 -447 -10 -995
l0 -924 42 -43 42 -43 291 0 291 0 43 44 43 44 5 884 c5 873 6 883 26 906 l20
22 449 0 448 0 0 60 0 61 -479 -3 -480 -3 -37 -35 c-79 -75 -74 -8 -74 -992
l0 -878 -250 0 -250 0 0 928 c0 883 1 930 19 994 59 206 227 381 433 451 61
21 82 22 591 25 l527 3 0 59 0 60 -517 -1 c-285 -1 -538 -5 -563 -9z"/>
<path d="M10957 2580 l-37 -60 0 -1194 0 -1195 42 -60 42 -61 292 0 292 0 41
63 41 63 0 1188 0 1188 -46 64 -45 64 -292 0 -292 0 -38 -60z m593 -1255 l0
-1195 -255 0 -255 0 0 1195 0 1195 255 0 255 0 0 -1195z"/>
<path d="M29517 2594 l-57 -46 2 -296 3 -296 55 -38 55 -38 1108 0 1109 0 59
46 59 45 0 293 0 292 -60 42 -59 42 -1108 0 -1108 0 -58 -46z m2283 -334 l0
-250 -1115 0 -1115 0 0 250 0 250 1115 0 1115 0 0 -250z"/>
<path d="M39510 2629 c-119 -14 -193 -51 -273 -138 -93 -100 -157 -297 -157
-485 l0 -86 308 0 308 0 47 48 47 48 0 312 0 312 -107 -1 c-60 -1 -137 -5
-173 -10z m170 -344 l0 -265 -246 0 -247 0 6 68 c19 202 103 354 231 419 58
29 109 40 194 42 l62 1 0 -265z"/>
<path d="M40620 2160 l0 -480 -775 0 -775 0 0 -835 0 -835 360 0 360 0 0 475
0 475 415 0 415 0 0 -475 0 -475 355 0 355 0 0 1315 0 1315 -355 0 -355 0 0
-480z m610 -835 l0 -1195 -250 0 -250 0 0 475 0 475 -525 0 -525 0 0 -480 0
-480 -250 0 -250 0 0 725 0 725 775 0 775 0 0 475 0 475 250 0 250 0 0 -1195z"/>
<path d="M41498 2593 l-58 -46 0 -293 0 -293 59 -41 60 -40 1107 0 1106 0 59
43 58 42 1 296 0 295 -57 42 -57 42 -1111 0 -1110 -1 -57 -46z m2282 -333 l0
-250 -1115 0 -1115 0 0 250 0 250 1115 0 1115 0 0 -250z"/>
<path d="M46081 2579 l-51 -61 0 -494 0 -494 -293 0 c-215 0 -296 -3 -305 -12
-9 -9 -12 -70 -12 -213 l0 -202 481 -544 481 -544 156 -3 156 -3 38 38 38 37
0 1226 -1 1225 -49 53 -49 52 -269 0 -270 0 -51 -61z m559 -1259 l0 -1200
-109 0 c-103 0 -110 1 -128 24 -10 13 -133 151 -273 307 -140 155 -333 370
-427 476 l-173 194 0 154 0 155 304 0 c252 0 306 2 316 14 9 12 10 139 4 545
l-7 531 246 0 247 0 0 -1200z"/>
<path d="M1144 2620 c-159 -13 -337 -73 -493 -165 -231 -137 -410 -330 -526
-570 -69 -142 -115 -328 -115 -461 l0 -44 358 0 358 0 11 71 c14 89 66 195
133 271 63 71 178 149 261 177 62 21 74 21 831 21 l768 0 0 355 0 355 -747 -1
c-412 -1 -789 -5 -839 -9z m1476 -263 c0 -96 -3 -208 -6 -250 l-7 -76 -706 -4
c-785 -4 -767 -2 -900 -72 -175 -92 -302 -245 -344 -415 l-14 -55 -248 -3
-248 -2 6 65 c14 143 102 343 223 505 209 279 502 440 853 469 53 5 387 9 744
10 l647 1 0 -173z"/>
<path d="M15210 2619 c-186 -16 -339 -70 -502 -179 -306 -202 -513 -512 -594
-885 -20 -95 -24 -324 -6 -431 54 -329 258 -657 541 -870 105 -79 276 -165
395 -199 133 -38 261 -45 814 -45 l502 0 0 355 0 355 -518 0 c-434 0 -527 2
-577 15 -181 48 -373 243 -431 440 -12 39 -17 91 -17 150 2 242 156 464 384
558 53 22 63 22 607 25 l552 3 0 359 0 360 -527 -1 c-291 -1 -571 -5 -623 -10z
m1040 -354 l0 -245 -462 0 c-255 0 -494 -5 -533 -10 -180 -26 -364 -183 -470
-404 -63 -131 -78 -199 -72 -321 10 -199 90 -370 236 -508 81 -76 161 -118
282 -147 78 -18 118 -20 552 -20 l467 0 0 -250 0 -250 -451 0 c-415 0 -459 2
-552 21 -283 57 -520 175 -690 344 -314 311 -431 833 -281 1254 110 310 395
598 709 716 170 65 160 64 738 64 l527 1 0 -245z"/>
<path d="M22250 2620 c-265 -20 -497 -135 -716 -354 -210 -209 -335 -447 -390
-741 -23 -125 -15 -353 16 -485 118 -492 527 -902 1005 -1007 57 -13 178 -16
653 -20 l582 -5 0 356 0 355 -548 3 -548 3 -75 37 c-227 113 -379 334 -379
553 0 264 189 516 435 580 50 12 145 15 582 15 l523 0 0 360 0 360 -522 -1
c-288 -1 -566 -5 -618 -9z m1030 -197 c0 -49 3 -159 7 -245 l6 -157 -514 -3
c-580 -5 -563 -2 -686 -86 -159 -109 -286 -296 -335 -496 -20 -81 -21 -96 -10
-183 24 -188 92 -333 216 -458 76 -77 140 -116 261 -156 69 -23 77 -24 561
-27 l491 -3 7 -239 c4 -132 5 -244 1 -250 -4 -6 -162 -10 -450 -10 -406 0
-453 2 -550 20 -494 96 -829 374 -975 808 -43 129 -63 257 -63 407 0 274 72
481 249 712 155 202 406 367 658 433 65 17 117 19 599 19 l527 1 0 -87z"/>
<path d="M25882 2590 l-43 -38 3 -969 3 -968 22 -62 c92 -252 365 -495 601
-534 31 -5 271 -9 533 -9 l475 0 32 33 32 33 0 295 0 295 -38 37 -38 37 -410
0 -411 0 -20 23 c-20 22 -21 34 -27 905 l-7 882 -42 40 -42 39 -290 0 -290 0
-43 -39z m588 -945 c0 -954 -3 -905 63 -973 17 -18 47 -37 67 -42 20 -6 201
-10 428 -10 l392 0 0 -245 0 -245 -454 0 c-445 0 -455 0 -534 23 -109 32 -181
77 -277 172 -87 87 -130 157 -164 269 -21 67 -21 82 -21 992 l0 924 250 0 250
0 0 -865z"/>
<path d="M27692 2592 l-43 -37 3 -980 3 -980 24 -60 c54 -136 201 -314 334
-404 76 -52 187 -99 257 -111 38 -6 262 -10 536 -10 l470 0 32 33 32 33 0 299
0 300 -40 32 -39 33 -410 0 -410 0 -20 29 c-21 29 -21 36 -21 904 l0 875 -46
41 -47 41 -286 0 -286 0 -43 -38z m581 -959 l7 -877 27 -46 c19 -30 43 -53 73
-67 44 -23 49 -23 447 -23 l403 0 0 -245 0 -245 -452 0 c-504 0 -528 3 -648
66 -131 68 -241 182 -302 310 -58 124 -58 116 -58 1102 l0 902 248 0 249 0 6
-877z"/>
<path d="M33139 2619 c-253 -21 -480 -127 -687 -323 -198 -188 -334 -427 -403
-706 -31 -125 -33 -378 -6 -510 102 -481 476 -893 931 -1024 132 -39 260 -46
814 -46 l502 0 0 355 0 355 -518 0 c-570 0 -584 1 -690 62 -200 114 -342 336
-342 533 0 82 27 185 71 274 77 156 235 283 388 311 31 6 270 10 572 10 l519
0 0 360 0 360 -527 -1 c-291 -1 -571 -5 -624 -10z m1041 -353 l0 -245 -512 -3
c-504 -4 -514 -4 -569 -26 -163 -65 -326 -235 -404 -422 -45 -105 -59 -172
-57 -265 5 -260 166 -526 377 -626 134 -63 134 -63 673 -67 l492 -3 0 -249 0
-250 -449 0 c-413 0 -459 2 -557 21 -503 97 -848 394 -983 846 -69 230 -68
522 2 728 75 219 237 436 437 584 109 81 280 164 400 195 95 25 96 25 623 26
l527 0 0 -244z"/>
<path d="M5202 2587 l-32 -33 0 -1235 0 -1235 38 -37 38 -37 289 0 290 1 38
47 37 47 0 295 c0 162 3 386 7 497 l6 203 291 2 291 3 3 225 2 225 -473 530
-473 530 -160 3 -160 2 -32 -33z m760 -582 l448 -500 0 -115 c0 -63 -3 -132
-6 -153 l-7 -37 -308 0 -309 0 0 -535 0 -535 -240 0 -240 0 0 1190 0 1191 107
-3 107 -3 448 -500z"/>
<path d="M44042 2587 l-32 -33 0 -1235 0 -1235 38 -37 38 -37 289 0 290 1 38
47 37 47 0 166 c0 91 3 315 7 497 l6 332 291 2 291 3 3 225 2 225 -472 530
-473 530 -160 3 -161 2 -32 -33z m761 -580 l447 -501 0 -153 0 -153 -315 0
-315 0 0 -535 0 -535 -240 0 -240 0 0 1190 0 1190 108 -1 107 0 448 -502z"/>
<path d="M29518 1633 l-58 -46 0 -748 0 -747 62 -46 62 -46 1100 0 1101 0 63
51 62 51 0 237 0 236 -61 63 -61 62 -734 0 -734 0 0 130 0 130 253 0 c311 0
454 12 556 46 134 44 266 135 349 239 81 102 150 260 167 383 l7 52 -1039 -1
-1038 -1 -57 -45z m1992 -83 c0 -5 -11 -34 -24 -64 -74 -166 -235 -319 -399
-376 -94 -33 -178 -40 -529 -40 l-338 0 0 -245 0 -245 790 0 790 0 0 -230 0
-230 -1115 0 -1115 0 0 720 0 720 970 0 c621 0 970 -3 970 -10z"/>
<path d="M41502 1633 l-62 -48 0 -745 0 -746 64 -47 64 -47 1102 0 1102 0 59
51 59 52 0 234 0 235 -56 64 -56 64 -734 0 -734 0 0 129 0 128 333 6 c294 4
341 7 412 26 159 42 310 135 401 249 81 101 174 322 174 415 l0 27 -1033 0
-1033 0 -62 -47z m1972 -130 c-72 -165 -170 -272 -324 -356 -123 -67 -142 -70
-567 -74 l-383 -5 0 -244 0 -244 790 0 790 0 0 -230 0 -230 -1115 0 -1115 0 0
720 0 720 975 0 975 0 -26 -57z"/>
<path d="M15080 1357 c0 -53 35 -178 72 -253 68 -141 220 -254 413 -306 73
-20 111 -22 432 -26 l353 -4 -36 84 c-19 45 -76 179 -127 295 l-91 213 -52 15
c-43 12 -130 15 -508 15 l-456 0 0 -33z m1015 -239 c39 -95 78 -192 88 -216
l17 -44 -277 4 c-315 5 -343 10 -473 88 -122 72 -204 167 -251 290 l-19 50
423 0 422 0 70 -172z"/>
<path d="M22123 1323 c15 -196 135 -371 316 -462 155 -79 188 -84 589 -89 193
-2 352 -2 352 1 0 3 -56 135 -124 294 l-123 288 -44 17 c-39 15 -97 17 -508
17 l-464 1 6 -67z m1021 -241 c47 -114 86 -211 86 -215 0 -4 -108 -7 -240 -7
-285 0 -354 11 -475 73 -108 56 -209 156 -258 256 -21 40 -37 80 -37 87 0 12
72 14 419 14 l419 0 86 -208z"/>
<path d="M33010 1353 c0 -59 27 -158 65 -240 81 -175 276 -300 518 -333 89
-11 677 -14 677 -2 0 4 -55 136 -122 293 l-123 287 -51 16 c-44 14 -115 16
-507 16 l-457 0 0 -37z m980 -158 c20 -49 60 -145 88 -213 l52 -124 -278 4
c-311 5 -344 11 -471 85 -119 70 -230 204 -266 321 l-6 22 422 -2 423 -3 36
-90z"/>
<path d="M2002 1198 c-31 -205 -222 -407 -438 -463 -50 -13 -167 -15 -806 -15
l-748 0 0 -356 0 -355 812 4 c713 4 822 6 883 21 280 66 531 215 706 418 191
222 292 458 315 736 l7 82 -360 0 -359 0 -12 -72z m584 -94 c-14 -138 -87
-314 -199 -478 -177 -258 -439 -428 -762 -492 -67 -14 -193 -17 -792 -21
l-713 -5 0 250 0 250 708 5 c793 4 767 2 913 78 96 50 201 145 258 233 43 66
90 183 91 224 l0 22 251 0 252 0 -7 -66z"/>
<path d="M3800 607 c0 -54 37 -184 75 -262 41 -86 137 -182 230 -232 162 -86
307 -106 722 -101 l241 3 -125 296 -126 296 -52 17 c-45 14 -114 16 -508 16
l-457 0 0 -33z m1030 -278 c47 -116 87 -215 88 -220 5 -13 -383 -12 -488 2
-244 30 -431 169 -511 379 l-19 50 423 0 422 0 85 -211z"/>
<path d="M12730 607 c0 -54 37 -184 75 -262 41 -86 137 -182 230 -232 162 -86
307 -106 722 -101 l241 3 -125 296 -126 296 -52 17 c-45 14 -114 16 -508 16
l-457 0 0 -33z m1030 -278 c47 -116 87 -215 88 -220 5 -13 -383 -12 -488 2
-244 30 -431 169 -511 379 l-19 50 423 0 422 0 85 -211z"/>
<path d="M24474 593 c13 -98 29 -150 71 -239 35 -72 57 -103 105 -147 122
-113 267 -172 462 -187 191 -15 631 -13 625 3 -2 6 -59 141 -127 299 l-122
287 -46 15 c-39 14 -115 16 -510 16 l-464 0 6 -47z m1029 -266 c48 -118 87
-217 87 -222 0 -4 -116 -5 -257 -2 -281 5 -338 14 -441 66 -135 68 -240 174
-292 295 -35 83 -69 76 398 76 l418 0 87 -213z"/>
<path d="M47820 603 c0 -63 29 -163 70 -249 61 -127 165 -218 320 -281 120
-48 173 -54 538 -60 l342 -6 -29 69 c-17 38 -74 173 -128 300 l-98 232 -51 16
c-43 14 -116 16 -507 16 l-457 0 0 -37z m1032 -283 c48 -118 88 -217 88 -219
0 -2 -116 -1 -257 2 -298 5 -368 18 -488 89 -124 74 -231 203 -269 326 l-7 22
422 -2 422 -3 89 -215z"/>
</g>
</svg>
